<svg width="48" height="48" viewBox="0 0 48 48" fill="none" xmlns="http://www.w3.org/2000/svg">
<path fill-rule="evenodd" clip-rule="evenodd" d="M33.2822 17.0882L30.9322 22.7622C30.1661 24.6102 27.3942 23.4622 28.1602 21.6142L30.5102 15.9402C31.2762 14.0922 34.0482 15.2402 33.2822 17.0882ZM43.8142 29.2442L38.1402 31.5942C36.2922 32.3602 35.1442 29.5882 36.9922 28.8222L42.6662 26.4722C44.5142 25.7062 45.6622 28.4782 43.8142 29.2442ZM9.61219 31.5962L3.93818 29.2462C2.09015 28.4802 3.23816 25.7082 5.08619 26.4742L10.7602 28.8242C12.6082 29.5902 11.4601 32.3622 9.61219 31.5962ZM17.2382 15.9382L19.5882 21.6122C20.3542 23.4602 17.5822 24.6082 16.8162 22.7602L14.4662 17.0862C13.7002 15.2382 16.4722 14.0902 17.2382 15.9382ZM14.0842 33.8822H33.6841C32.7576 29.3177 28.7221 25.8822 23.8842 25.8822C19.0463 25.8822 15.0107 29.3177 14.0842 33.8822Z" fill="#FFB300"/>
<path d="M24 28L24 31" stroke="white" stroke-linecap="round" stroke-linejoin="round"/>
<path d="M22 30L24 32L26 30" stroke="white" stroke-linecap="round" stroke-linejoin="round"/>
</svg>
