<?xml version="1.0" standalone="no"?>
<!DOCTYPE svg PUBLIC "-//W3C//DTD SVG 20010904//EN"
 "http://www.w3.org/TR/2001/REC-SVG-20010904/DTD/svg10.dtd">
<svg version="1.0" xmlns="http://www.w3.org/2000/svg"
 width="512.000000pt" height="512.000000pt" viewBox="0 0 512.000000 512.000000"
 preserveAspectRatio="xMidYMid meet">
<metadata>
Created by potrace 1.14, written by Peter Selinger 2001-2017
</metadata>
<g transform="translate(0.000000,512.000000) scale(0.100000,-0.100000)"
fill="#000000" stroke="none">
<path d="M880 5105 c-220 -38 -415 -139 -570 -295 -161 -160 -265 -369 -299
-597 -15 -100 -15 -3206 0 -3306 34 -228 138 -437 299 -597 160 -161 369 -265
597 -299 116 -18 3245 -14 3343 3 442 80 789 433 859 876 7 43 11 607 11 1675
-1 1305 -3 1624 -14 1685 -80 442 -433 789 -876 859 -104 17 -3253 13 -3350
-4z m983 -1324 c42 -11 119 -42 170 -68 75 -38 109 -64 188 -143 76 -76 104
-112 138 -180 l44 -85 146 0 c109 -1 163 -5 211 -18 162 -45 334 -159 430
-285 59 -77 123 -205 141 -277 7 -27 13 -51 14 -53 1 -1 22 5 46 13 62 23 192
30 275 16 276 -48 494 -309 494 -591 0 -225 -136 -440 -340 -538 -47 -22 -112
-45 -144 -51 -80 -15 -1822 -15 -1897 -1 -137 26 -263 122 -320 245 -63 134
-61 278 5 401 l33 62 -61 16 c-33 10 -101 38 -151 64 -73 37 -108 64 -185 142
-79 78 -105 112 -143 187 -69 135 -90 220 -90 373 0 153 21 238 90 373 38 75
64 109 143 187 78 79 111 104 185 142 50 25 107 51 129 58 135 43 307 47 449
11z"/>
</g>
</svg>
