<svg width="48" height="48" viewBox="0 0 48 48" fill="none" xmlns="http://www.w3.org/2000/svg">
<path d="M32 24C36.4183 24 40 20.4183 40 16C40 11.5817 36.4183 8 32 8C27.5817 8 24 11.5817 24 16C24 20.4183 27.5817 24 32 24Z" fill="url(#paint0_linear_4_150)"/>
<path d="M30.96 1.45999L31.48 4.41399C31.828 6.38399 28.872 6.90399 28.526 4.93399L28.006 1.97999C27.658 0.00998572 30.614 -0.510014 30.96 1.45999ZM35.474 27.066L35.994 30.02C36.342 31.99 33.386 32.51 33.04 30.54L32.52 27.586C32.172 25.616 35.128 25.096 35.474 27.066ZM41.546 4.98399L39.826 7.44198C38.678 9.07998 36.222 7.35998 37.368 5.72199L39.088 3.26399C40.236 1.62599 42.692 3.34599 41.546 4.98399ZM26.634 26.282L24.914 28.74C23.766 30.378 21.31 28.658 22.456 27.02L24.176 24.562C25.324 22.924 27.78 24.644 26.634 26.282ZM20.984 6.45598L23.442 8.17598C25.08 9.32398 23.36 11.78 21.722 10.634L19.264 8.91398C17.626 7.76598 19.346 5.30998 20.984 6.45598ZM42.282 21.368L44.74 23.088C46.378 24.236 44.658 26.692 43.02 25.546L40.562 23.826C38.924 22.678 40.644 20.222 42.282 21.368ZM46.542 14.96L43.588 15.48C41.618 15.828 41.098 12.872 43.068 12.526L46.022 12.006C47.992 11.658 48.512 14.614 46.542 14.96ZM20.936 19.474L17.982 19.994C16.012 20.342 15.492 17.386 17.462 17.04L20.416 16.52C22.386 16.172 22.906 19.128 20.936 19.474Z" fill="#FFB300"/>
<path d="M9.12001 36.9039L6.12001 43.9159C5.79401 44.6779 6.14801 45.5599 6.91001 45.8859C7.67201 46.2119 8.55401 45.8579 8.88001 45.0959L11.88 38.0839C12.206 37.3219 11.852 36.4399 11.09 36.1139C10.328 35.7879 9.44601 36.1419 9.12001 36.9039ZM17.12 36.9039L14.12 43.9159C13.794 44.6779 14.148 45.5599 14.91 45.8859C15.672 46.2119 16.554 45.8579 16.88 45.0959L19.88 38.0839C20.206 37.3219 19.852 36.4399 19.09 36.1139C18.328 35.7879 17.446 36.1419 17.12 36.9039ZM25.12 36.9039L22.12 43.9159C21.794 44.6779 22.148 45.5599 22.91 45.8859C23.672 46.2119 24.554 45.8579 24.88 45.0959L27.88 38.0839C28.206 37.3219 27.852 36.4399 27.09 36.1139C26.328 35.7879 25.446 36.1419 25.12 36.9039ZM33.12 36.9039L30.12 43.9159C29.794 44.6779 30.148 45.5599 30.91 45.8859C31.672 46.2119 32.554 45.8579 32.88 45.0959L35.88 38.0839C36.206 37.3219 35.852 36.4399 35.09 36.1139C34.328 35.7879 33.446 36.1419 33.12 36.9039Z" fill="#66AFEB"/>
<path d="M12 34C7.582 34 4 30.418 4 26C4 21.582 7.582 18 12 18C12.834 18 13.636 18.128 14.392 18.364C15.518 14.68 18.946 12 23 12C27.97 12 32 16.03 32 21C32 21.47 31.964 21.93 31.894 22.38C32.55 22.134 33.258 22 34 22C37.314 22 40 24.686 40 28C40 31.314 37.314 34 34 34H12Z" fill="url(#paint1_linear_4_150)"/>
<path d="M14 21C14 25.97 18.03 30 23 30C27.502 30 31.23 26.696 31.894 22.38C32.55 22.134 33.258 22 34 22C37.314 22 40 24.686 40 28C40 31.314 37.314 34 34 34H12C7.582 34 4 30.418 4 26C4 21.582 7.582 18 12 18C12.834 18 13.636 18.128 14.392 18.364C14.136 19.198 14 20.082 14 21Z" fill="url(#paint2_radial_4_150)"/>
<defs>
<linearGradient id="paint0_linear_4_150" x1="40" y1="8" x2="28.7832" y2="19.0723" gradientUnits="userSpaceOnUse">
<stop stop-color="#FFB301"/>
<stop offset="1" stop-color="#FFC533"/>
</linearGradient>
<linearGradient id="paint1_linear_4_150" x1="22" y1="12" x2="22" y2="34" gradientUnits="userSpaceOnUse">
<stop stop-color="#9FC7FF"/>
<stop offset="1" stop-color="#9BC1F5"/>
</linearGradient>
<radialGradient id="paint2_radial_4_150" cx="0" cy="0" r="1" gradientUnits="userSpaceOnUse" gradientTransform="translate(15.0679 -22.6966) rotate(-90) scale(20.9574 6.69705)">
<stop stop-color="#486DA8" stop-opacity="0.4"/>
<stop offset="1" stop-color="#486DA8" stop-opacity="0"/>
</radialGradient>
</defs>
</svg>
